<?xml version="1.0" standalone="no"?>
<!DOCTYPE svg PUBLIC "-//W3C//DTD SVG 20010904//EN"
 "http://www.w3.org/TR/2001/REC-SVG-20010904/DTD/svg10.dtd">
<svg version="1.0" xmlns="http://www.w3.org/2000/svg"
 width="211.000000pt" height="211.000000pt" viewBox="0 0 211.000000 211.000000"
 preserveAspectRatio="xMidYMid meet">
<metadata>
Created by potrace 1.11, written by Peter Selinger 2001-2013
</metadata>
<g transform="translate(0.000000,211.000000) scale(0.100000,-0.100000)"
fill="#000000" stroke="none">
<path d="M50 1035 l0 -535 126 0 126 0 -3 375 c-2 206 -3 375 -3 375 1 0 89
-169 195 -375 l194 -375 193 0 192 0 0 535 0 535 -131 0 -130 0 3 -370 c2
-204 2 -370 1 -370 -1 0 -88 166 -195 370 l-193 370 -187 0 -188 0 0 -535z"/>
<path d="M1300 1035 l0 -535 145 0 145 0 0 174 0 174 88 7 c266 20 392 141
392 376 0 136 -48 228 -148 282 -86 47 -155 57 -399 57 l-223 0 0 -535z m437
284 c68 -42 51 -169 -27 -211 -19 -10 -54 -18 -77 -18 l-43 0 0 126 0 127 63
-5 c35 -3 73 -11 84 -19z"/>
</g>
</svg>
